<?xml version="1.0" standalone="no"?>
<!DOCTYPE svg PUBLIC "-//W3C//DTD SVG 20010904//EN"
 "http://www.w3.org/TR/2001/REC-SVG-20010904/DTD/svg10.dtd">
<svg version="1.0" xmlns="http://www.w3.org/2000/svg"
 width="300.000000pt" height="263.000000pt" viewBox="0 0 300.000000 263.000000"
 preserveAspectRatio="xMidYMid meet">
<metadata>
Created by potrace 1.10, written by Peter Selinger 2001-2011
</metadata>
<g transform="translate(0.000000,263.000000) scale(0.100000,-0.100000)"
fill="#eeeeee" stroke="none">
<path d="M2022 2595 c-23 -7 -59 -25 -78 -40 -46 -35 -120 -130 -160 -206 -32
-59 -32 -59 -17 -115 8 -31 12 -63 9 -70 -3 -8 3 -33 13 -57 15 -36 25 -45 57
-54 23 -6 63 -7 99 -3 l60 7 -67 3 c-38 1 -72 4 -78 5 -5 1 -14 3 -19 4 -13 2
-44 90 -37 107 3 8 12 12 18 9 7 -4 6 -1 -3 7 -16 13 -39 70 -39 95 0 8 18 22
40 30 22 9 37 20 34 25 -3 5 -11 4 -19 -2 -9 -8 -14 -6 -19 5 -3 9 0 15 8 15
8 0 17 15 20 33 4 17 22 48 41 67 19 19 35 38 35 42 0 16 87 62 140 74 42 10
56 11 62 1 6 -9 8 -9 8 0 0 9 11 11 38 7 41 -6 87 -47 78 -71 -3 -8 -2 -12 3
-9 5 3 9 -27 10 -68 1 -73 1 -74 -34 -105 -20 -17 -40 -29 -45 -26 -6 3 -7 -1
-4 -9 3 -9 1 -16 -5 -16 -7 0 -16 10 -21 23 -5 12 -9 16 -9 8 -1 -11 -5 -10
-20 4 -12 10 -42 19 -73 22 -29 3 -56 10 -60 16 -5 8 -14 7 -32 -2 -13 -8 -36
-11 -51 -9 -14 3 -28 1 -31 -3 -3 -5 30 -9 74 -9 84 0 172 -21 192 -45 21 -26
48 -17 100 33 28 27 53 45 56 41 2 -5 5 -30 6 -56 0 -39 -3 -50 -23 -63 -13
-8 -35 -26 -49 -39 l-25 -23 28 16 c15 9 33 14 40 10 7 -4 9 -4 5 1 -7 8 19
34 34 35 4 0 5 -13 2 -30 -4 -19 -2 -30 5 -30 15 0 14 -37 -1 -43 -7 -2 -9 -8
-5 -13 4 -4 17 -2 28 5 24 14 24 14 33 -15 5 -17 0 -27 -20 -43 -24 -19 -24
-26 -1 -22 11 2 8 -9 -11 -37 -13 -18 -16 -35 -12 -52 6 -20 0 -33 -34 -68
-23 -24 -34 -41 -26 -37 11 4 16 -1 17 -15 1 -11 -2 -18 -8 -15 -12 8 -11 -6
1 -25 7 -12 10 -11 15 5 8 25 19 51 35 90 11 24 14 26 18 12 5 -23 -49 -177
-60 -171 -4 3 -8 -9 -8 -26 0 -17 -7 -45 -16 -63 -11 -21 -12 -28 -3 -19 20
19 26 15 33 -26 4 -28 13 -42 31 -50 30 -14 32 -9 6 17 -12 12 -22 41 -26 76
-6 48 -4 67 15 114 29 70 40 83 41 48 2 -44 3 -47 19 -57 13 -8 13 -10 -1 -10
-22 0 -41 -49 -37 -95 4 -51 25 -56 43 -11 19 46 19 123 -1 200 -31 116 -33
165 -12 214 25 55 18 117 -11 107 -16 -5 -19 4 -28 83 -6 49 -17 104 -27 122
-9 18 -16 56 -16 84 0 62 -33 135 -70 153 -33 16 -143 15 -198 -2z m349 -921
l-9 -39 -1 36 c-1 20 2 39 6 42 12 13 13 0 4 -39z"/>
<path d="M1226 2549 c-2 -8 -8 -50 -14 -94 -20 -150 -29 -179 -62 -193 -23
-10 -31 -22 -35 -50 -3 -20 -8 -48 -10 -62 -2 -14 -2 -19 1 -12 3 6 10 12 15
12 10 0 -7 -43 -32 -80 -12 -17 -33 -29 -70 -38 -30 -6 -66 -21 -81 -32 -15
-11 -34 -20 -42 -20 -26 0 -46 -12 -46 -27 0 -13 3 -13 15 -3 10 8 27 10 52 5
32 -6 35 -9 18 -16 -12 -5 8 -6 47 -2 54 5 73 2 94 -11 37 -25 74 -110 74
-173 0 -56 -15 -71 -26 -25 -11 43 -36 81 -51 75 -11 -4 -11 -9 3 -24 9 -10
14 -27 11 -39 -3 -11 -2 -18 2 -16 4 3 15 -4 25 -15 21 -26 40 -20 44 13 3 22
10 27 49 35 68 12 73 29 34 102 -18 34 -30 65 -26 70 3 5 0 13 -6 17 -8 5 -10
2 -4 -7 4 -8 -4 0 -19 16 -23 27 -24 31 -8 40 31 18 81 75 99 112 15 33 15 36
0 48 -19 13 -24 30 -6 19 6 -3 34 -6 63 -6 31 0 44 -2 32 -7 -11 -4 5 -7 38
-7 40 1 60 -3 67 -14 8 -13 11 -12 24 4 8 11 15 31 16 45 0 14 2 34 4 45 2 10
1 24 -1 31 -7 16 -149 28 -189 16 l-30 -9 30 -2 c26 -1 27 -3 10 -10 -19 -8
-18 -9 4 -9 14 -1 34 -9 45 -18 21 -18 21 -18 3 3 -17 21 -17 21 40 19 57 -1
58 -2 59 -31 1 -16 -3 -37 -8 -46 -8 -16 -11 -17 -32 -3 -12 8 -26 12 -29 8
-4 -3 -18 4 -31 16 -14 13 -31 21 -38 18 -9 -4 -7 -6 5 -6 28 -1 20 -16 -10
-18 -66 -5 -188 -2 -196 6 -4 4 4 20 18 35 14 15 26 25 26 22 1 -4 2 -10 3
-15 0 -5 5 -13 10 -18 5 -4 7 6 4 25 -3 24 -1 32 11 33 10 0 11 2 4 5 -16 7
-5 66 14 77 7 4 13 24 13 43 0 19 5 44 10 55 8 14 7 25 -5 43 -19 29 -7 41 32
31 53 -13 173 -69 173 -81 0 -6 -7 -34 -16 -62 -15 -47 -19 -50 -56 -56 -50
-8 -87 -31 -64 -39 9 -4 18 -2 21 3 4 6 26 10 49 10 43 0 43 0 65 56 11 31 21
67 21 80 0 22 3 23 43 18 30 -4 65 2 122 20 106 34 107 34 83 -15 -10 -22 -17
-43 -14 -47 3 -3 1 -11 -5 -19 -6 -7 -8 -13 -5 -13 4 0 2 -8 -3 -19 -6 -10
-12 -32 -13 -49 -2 -30 -5 -31 -45 -16 -49 18 -183 29 -183 15 0 -7 20 -11 53
-11 28 -1 77 -10 107 -21 74 -28 116 -34 125 -18 6 9 2 11 -13 7 -12 -4 -22
-3 -22 0 0 19 43 200 53 220 8 18 7 26 -6 39 -18 18 -12 20 -171 -37 -67 -24
-90 -22 -186 22 -76 34 -167 49 -174 27z m15 -86 c-12 -20 -14 -14 -5 12 4 9
9 14 11 11 3 -2 0 -13 -6 -23z m-12 -87 c-9 -8 -10 -7 -5 7 3 10 7 24 7 30 1
7 3 4 6 -7 3 -10 -1 -23 -8 -30z m-79 -190 c0 -2 -7 -7 -16 -10 -8 -3 -12 -2
-9 4 6 10 25 14 25 6z m88 -18 c6 -1 10 -4 7 -6 -3 -3 2 -10 11 -16 14 -10 11
-18 -23 -58 -21 -26 -50 -56 -65 -68 -33 -26 -35 -41 -8 -65 11 -10 20 -24 20
-31 0 -7 5 -14 10 -16 6 -2 11 -17 13 -35 1 -17 4 -29 6 -27 6 5 30 -29 31
-43 0 -17 -35 -34 -55 -27 -10 4 -15 16 -14 33 3 25 -38 102 -61 116 -6 3 -7
12 -4 18 4 7 4 9 -1 5 -10 -9 -55 14 -79 41 -19 21 -19 21 0 20 41 -4 64 2 64
16 0 8 4 15 9 15 12 0 43 68 45 99 1 34 14 43 51 36 17 -3 36 -6 43 -7z m-234
-174 c9 -3 16 -12 16 -20 0 -17 -31 -18 -49 -1 -11 10 -13 10 -7 0 4 -7 3 -13
-2 -13 -19 0 -21 14 -4 26 20 15 25 16 46 8z"/>
<path d="M2001 2539 c-13 -5 -22 -11 -20 -14 8 -7 49 7 49 16 0 5 -1 9 -2 8
-2 0 -14 -5 -27 -10z"/>
<path d="M1295 2480 c-3 -5 -14 -33 -24 -62 -11 -29 -22 -61 -26 -71 -6 -13
-3 -16 9 -11 9 3 16 15 16 25 0 10 4 19 8 19 7 0 12 19 15 62 1 9 3 15 6 13 6
-6 31 15 31 26 0 12 -27 11 -35 -1z"/>
<path d="M1931 2474 c0 -11 3 -14 6 -6 3 7 2 16 -1 19 -3 4 -6 -2 -5 -13z"/>
<path d="M1904 2389 c-3 -5 -9 -7 -14 -4 -5 3 -12 0 -15 -6 -5 -7 17 -9 76 -3
97 8 114 14 43 15 -27 0 -57 2 -66 4 -10 2 -20 -1 -24 -6z"/>
<path d="M2177 2359 c-10 -11 -15 -25 -11 -31 4 -7 13 0 21 16 18 34 13 42
-10 15z"/>
<path d="M1278 2303 c7 -3 16 -2 19 1 4 3 -2 6 -13 5 -11 0 -14 -3 -6 -6z"/>
<path d="M1880 2286 c0 -2 7 -9 15 -16 13 -11 14 -10 9 4 -5 14 -24 23 -24 12z"/>
<path d="M1958 2283 c-10 -2 -18 -11 -18 -19 0 -8 4 -13 9 -9 5 3 13 1 16 -5
4 -6 1 -9 -7 -8 -9 2 -14 -13 -16 -50 -2 -42 0 -52 10 -46 8 4 10 3 5 -2 -5
-5 -13 -9 -18 -9 -12 0 -13 -19 0 -23 19 -6 39 44 43 111 2 37 1 66 -2 66 -3
-1 -13 -3 -22 -6z"/>
<path d="M1851 2264 c0 -11 3 -14 6 -6 3 7 2 16 -1 19 -3 4 -6 -2 -5 -13z"/>
<path d="M1546 2263 c6 -4 16 -17 23 -28 11 -18 12 -18 7 -1 -5 15 -2 17 14
13 11 -3 20 -1 20 4 0 5 -9 9 -19 9 -11 0 -28 3 -38 6 -11 3 -14 2 -7 -3z"/>
<path d="M1636 2257 c3 -10 9 -15 12 -12 3 3 0 11 -7 18 -10 9 -11 8 -5 -6z"/>
<path d="M2165 2218 c0 -40 -3 -44 -39 -63 -63 -33 -96 -67 -94 -98 3 -35 15
-38 75 -18 56 19 75 13 87 -25 8 -26 -5 -32 -59 -28 -22 2 -49 -3 -61 -11 -12
-8 -44 -15 -71 -16 -28 -1 -55 -9 -63 -18 -13 -13 -12 -14 5 -7 11 5 39 10 61
13 36 5 43 3 49 -16 11 -36 -5 -101 -45 -186 -20 -44 -40 -88 -44 -98 -3 -10
-10 -15 -16 -12 -5 3 -10 4 -10 2 0 -2 19 -17 41 -32 23 -15 38 -21 34 -14 -6
8 -4 10 6 3 8 -4 20 -9 27 -10 20 -3 22 -8 12 -24 -9 -13 -10 -13 -10 0 -1 9
-6 6 -14 -9 l-13 -24 -23 23 c-19 19 -37 24 -94 28 -121 7 -160 7 -181 -2 -11
-5 -3 8 19 28 21 20 43 36 48 36 18 0 37 27 44 66 11 55 11 52 12 126 2 57 5
68 22 73 11 4 17 11 14 17 -5 8 -1 9 10 5 10 -4 15 -3 11 3 -3 6 -1 10 6 10 7
0 10 3 7 6 -3 3 -24 -4 -46 -15 l-39 -20 -7 -93 c-9 -127 -16 -150 -50 -159
-16 -4 -36 -15 -45 -23 -10 -9 -21 -13 -26 -9 -4 5 -5 2 -1 -5 4 -7 -4 -32
-18 -58 -25 -45 -25 -45 -3 -38 12 4 34 15 49 25 14 11 29 19 33 19 23 0 -99
-218 -129 -231 -20 -8 -19 -9 4 -6 18 1 33 18 62 67 l37 65 60 -2 59 -2 38 49
c35 46 39 48 58 34 11 -8 28 -14 38 -14 26 0 22 -20 -4 -21 -15 0 -8 -5 19
-14 87 -27 173 -93 173 -133 0 -11 -3 -12 -13 -3 -8 6 -16 9 -19 6 -3 -3 -11
3 -19 12 -13 16 -12 17 4 4 19 -15 24 -2 5 17 -19 19 -26 15 -38 -25 -7 -21
-16 -42 -21 -48 -12 -12 -11 -25 0 -25 5 0 12 14 16 30 7 33 18 36 55 15 33
-19 38 -18 45 4 3 11 12 18 19 15 10 -4 11 -12 2 -37 -14 -41 -72 -143 -86
-152 -5 -3 -10 -11 -10 -17 0 -20 29 13 74 87 25 40 46 78 46 85 0 7 8 19 18
26 16 13 16 15 0 27 -10 8 -14 18 -10 22 4 5 1 5 -5 1 -8 -4 -17 2 -24 18 -7
14 -16 23 -21 20 -5 -3 3 -22 18 -41 l27 -35 -24 7 c-13 4 -26 12 -28 18 -6
16 -59 63 -89 78 -15 8 -32 21 -39 29 -8 10 -12 11 -13 3 0 -7 -7 -10 -15 -7
-12 5 -13 10 -4 20 17 21 32 17 88 -21 28 -19 54 -35 59 -35 5 0 14 17 20 37
11 35 10 39 -16 64 -47 45 -80 62 -108 55 -14 -4 -41 -2 -59 4 l-34 11 40 82
c53 109 73 180 60 206 -17 31 -13 38 25 44 43 7 67 -1 60 -19 -4 -10 3 -14 22
-13 17 1 20 3 10 6 -18 4 -25 22 -10 24 52 4 73 9 101 24 33 16 33 18 28 67
-4 28 -8 53 -11 55 -2 2 -33 -4 -68 -15 -42 -13 -67 -17 -75 -10 -7 5 -22 7
-34 3 -17 -6 -19 -9 -8 -17 10 -7 7 -7 -9 -3 -13 4 -29 1 -38 -6 -8 -6 -17 -9
-20 -6 -13 12 16 41 77 76 63 36 64 38 66 81 1 44 1 44 -7 10 l-7 -35 -2 38
c-2 51 -16 47 -16 -5z m67 -193 c4 -51 -6 -60 -16 -14 -8 43 -8 59 3 59 5 0
11 -20 13 -45z m52 23 c4 -15 0 -27 -11 -35 -21 -16 -30 -9 -27 19 1 13 3 26
3 31 2 17 29 5 35 -15z m-174 -443 c0 -17 -24 -63 -31 -59 -5 3 -5 13 1 25 6
11 9 23 6 28 -3 4 1 8 9 8 8 0 15 -1 15 -2z m63 -96 c-9 -9 -18 -8 -37 5 -27
17 -30 24 -20 51 6 14 11 12 38 -14 23 -23 28 -33 19 -42z m-291 53 c17 -7 16
-9 -2 -40 -18 -29 -24 -32 -69 -32 l-50 0 15 28 c7 15 14 33 14 40 0 13 62 16
92 4z"/>
<path d="M1880 2230 c-6 -11 -8 -20 -6 -20 3 0 10 9 16 20 6 11 8 20 6 20 -3
0 -10 -9 -16 -20z"/>
<path d="M1697 2233 c-13 -12 -7 -43 8 -43 8 0 15 -8 16 -17 1 -28 17 15 18
47 1 20 -1 22 -9 10 -8 -12 -12 -12 -18 -2 -5 7 -11 9 -15 5z"/>
<path d="M1283 2223 c9 -2 23 -2 30 0 6 3 -1 5 -18 5 -16 0 -22 -2 -12 -5z"/>
<path d="M1610 2197 c0 -17 -4 -47 -9 -64 -5 -18 -6 -35 -1 -38 5 -3 14 21 20
52 6 32 13 64 15 71 3 6 -2 12 -10 12 -10 0 -15 -11 -15 -33z"/>
<path d="M1648 2190 c-3 -16 -1 -30 4 -30 4 0 8 14 8 30 0 17 -2 30 -4 30 -2
0 -6 -13 -8 -30z"/>
<path d="M1526 2185 c-4 -17 -9 -38 -12 -47 -3 -10 -1 -18 4 -18 5 0 13 15 16
33 6 29 8 30 20 15 16 -22 26 -23 26 -2 0 8 -4 12 -10 9 -5 -3 -10 1 -10 10 0
9 -4 14 -9 11 -5 -4 -11 -1 -13 6 -3 7 -8 -1 -12 -17z"/>
<path d="M1862 2165 c0 -16 2 -22 5 -12 2 9 2 23 0 30 -3 6 -5 -1 -5 -18z"/>
<path d="M1675 2146 c-19 -45 -14 -76 10 -56 9 7 19 10 22 6 9 -9 -16 -26 -39
-26 -9 0 -21 7 -26 16 -5 10 -12 12 -15 7 -6 -10 29 -49 42 -47 3 1 4 -3 2
-10 -2 -6 -7 -30 -12 -54 -5 -23 -14 -52 -20 -63 -9 -17 -8 -23 2 -30 10 -6
11 -9 2 -9 -7 0 -13 -7 -13 -15 0 -8 -3 -14 -7 -12 -5 1 -9 -3 -10 -8 -1 -5 8
-9 20 -7 21 2 21 2 -3 -13 -14 -9 -17 -14 -7 -11 9 3 17 1 17 -4 0 -6 -5 -10
-11 -10 -8 0 -7 -5 1 -15 11 -13 9 -19 -7 -38 -30 -34 -41 -56 -16 -34 20 17
21 17 27 -14 3 -17 6 -49 6 -70 0 -35 -3 -39 -25 -39 -18 0 -25 -5 -25 -19 0
-20 18 -31 52 -31 20 0 21 3 14 101 -5 71 -4 105 5 115 6 7 9 20 6 28 -3 8 -3
17 1 21 3 3 8 41 9 84 2 43 12 107 23 142 24 76 25 108 6 135 -14 18 -15 17
-31 -20z m35 -24 c0 -15 -2 -15 -10 -2 -13 20 -13 33 0 25 6 -3 10 -14 10 -23z"/>
<path d="M1895 2159 c-9 -14 -2 -20 14 -10 8 6 9 11 3 15 -6 3 -14 1 -17 -5z"/>
<path d="M2280 2160 c11 -7 11 -10 2 -10 -19 0 -114 -42 -108 -47 8 -8 100 29
121 49 19 18 19 18 -5 18 -20 0 -22 -2 -10 -10z"/>
<path d="M1317 2133 c4 -10 17 -33 30 -51 17 -26 20 -39 13 -58 -12 -32 -12
-34 0 -34 6 0 10 7 10 17 0 14 2 14 20 -2 30 -27 24 -47 -23 -76 -68 -43 -83
-44 -103 -10 -10 17 -23 32 -30 35 -7 3 2 -18 19 -45 23 -37 32 -66 37 -117 5
-59 7 -63 14 -35 4 18 5 42 1 53 -5 14 -2 20 9 20 18 0 21 11 5 27 -7 7 6 20
46 42 32 18 60 30 63 26 4 -3 1 -10 -6 -14 -9 -5 -11 -17 -6 -36 5 -19 3 -26
-4 -21 -6 3 -14 1 -17 -4 -5 -7 -12 -5 -22 7 -8 10 -12 12 -8 6 4 -8 0 -13 -9
-13 -9 0 -16 -5 -16 -11 0 -7 17 -9 51 -5 44 6 50 4 40 -8 -7 -8 -10 -38 -8
-76 3 -61 4 -63 43 -84 29 -16 38 -26 36 -42 -6 -41 37 -113 79 -133 31 -16
39 -16 39 -5 0 8 -8 14 -19 14 -40 0 -91 71 -91 128 0 16 29 23 50 12 14 -7
20 -6 24 7 8 19 -8 40 -18 24 -12 -18 -71 -13 -94 9 -19 18 -22 32 -22 93 0
135 -16 193 -76 289 -55 86 -70 105 -57 71z"/>
<path d="M1408 2143 c7 -3 16 -2 19 1 4 3 -2 6 -13 5 -11 0 -14 -3 -6 -6z"/>
<path d="M1372 2096 c12 -19 25 -33 27 -31 2 3 -1 11 -7 18 -7 8 -9 16 -6 20
3 3 -4 11 -16 17 -21 11 -21 11 2 -24z"/>
<path d="M1754 2090 c3 -19 8 -56 11 -82 4 -27 13 -51 21 -56 13 -7 14 -18 5
-67 -6 -32 -11 -66 -10 -74 1 -28 16 21 24 78 4 29 10 49 14 44 3 -5 16 -4 31
4 l25 13 -23 0 c-34 0 -50 21 -58 77 -3 27 -15 60 -25 74 l-20 24 5 -35z"/>
<path d="M2340 2095 c-14 -16 -10 -18 14 -9 9 3 16 10 16 15 0 14 -16 11 -30
-6z"/>
<path d="M1315 2080 c-4 -6 -11 -7 -17 -4 -7 4 -8 2 -4 -5 4 -6 0 -18 -8 -27
-9 -8 -16 -20 -16 -26 0 -6 14 6 30 27 17 21 30 39 30 41 0 8 -9 4 -15 -6z"/>
<path d="M1570 2080 c0 -6 7 -10 15 -10 8 0 15 2 15 4 0 2 -7 6 -15 10 -8 3
-15 1 -15 -4z"/>
<path d="M1417 2045 c-7 -16 29 -85 43 -85 5 0 0 21 -12 48 -25 58 -24 56 -31
37z"/>
<path d="M1928 2023 c6 -2 18 -2 25 0 6 3 1 5 -13 5 -14 0 -19 -2 -12 -5z"/>
<path d="M1540 2002 c0 -4 19 -9 43 -9 35 -1 38 0 17 7 -33 11 -60 12 -60 2z"/>
<path d="M1260 1989 c0 -5 5 -7 10 -4 6 3 10 8 10 11 0 2 -4 4 -10 4 -5 0 -10
-5 -10 -11z"/>
<path d="M1598 1972 c-16 -2 -28 -7 -28 -11 0 -12 -96 -62 -104 -54 -4 4 -6
-14 -5 -40 2 -27 7 -51 12 -54 5 -3 7 14 5 37 -3 42 -3 42 42 56 39 12 130 53
130 60 0 6 -28 9 -52 6z"/>
<path d="M2290 1970 c-9 -6 -10 -10 -3 -10 6 0 15 5 18 10 8 12 4 12 -15 0z"/>
<path d="M810 1950 c0 -5 4 -10 9 -10 6 0 13 5 16 10 3 6 -1 10 -9 10 -9 0
-16 -4 -16 -10z"/>
<path d="M455 1943 c-36 -9 -67 -46 -62 -73 3 -14 1 -32 -3 -40 -25 -47 72
-137 232 -215 l86 -42 241 4 c267 5 316 -2 420 -57 58 -31 141 -102 141 -120
0 -13 -37 -13 -45 -1 -3 5 -29 15 -58 21 -41 8 -68 7 -119 -3 -119 -25 -195
-1 -279 90 l-43 46 -145 -1 c-161 -3 -339 -21 -319 -33 8 -5 -6 -8 -32 -8 -40
1 -78 -10 -200 -57 -19 -7 -47 -13 -61 -14 -42 0 -56 -27 -57 -104 0 -65 25
-168 65 -268 l14 -36 96 -4 c81 -2 97 -6 110 -23 8 -11 19 -19 25 -17 8 2 7
-2 -1 -11 -9 -12 -7 -16 11 -21 l23 -7 -23 -10 c-30 -11 -45 -3 -39 22 5 20
-9 27 -15 8 -4 -12 -157 -17 -176 -5 -8 4 -8 14 -2 31 10 28 -1 33 -20 10 -15
-18 -5 -48 26 -82 13 -14 24 -33 24 -42 0 -28 64 -110 94 -121 22 -7 27 -15
23 -30 -4 -15 7 -30 45 -60 28 -22 61 -40 74 -40 13 0 25 -8 28 -18 7 -21 73
-56 81 -43 6 10 45 2 45 -9 0 -21 191 -39 220 -20 13 8 12 10 -2 10 -10 0 -18
5 -18 12 0 6 -6 3 -14 -7 -12 -17 -17 -18 -41 -7 -14 7 -31 10 -36 6 -5 -3
-39 4 -74 15 -35 12 -69 21 -75 21 -6 0 -51 26 -100 58 -136 87 -132 83 -82
78 36 -4 41 -2 31 10 -6 8 -20 14 -30 14 -11 0 -19 6 -19 13 0 7 -13 26 -30
42 -16 16 -30 25 -30 19 0 -5 12 -20 25 -33 40 -38 29 -46 -16 -10 -22 18 -46
44 -52 58 -6 14 -17 34 -25 44 -14 16 -11 17 41 17 46 0 57 -3 62 -19 6 -20
45 -60 45 -46 0 4 -7 13 -15 19 -9 6 -17 21 -18 34 -1 20 -6 22 -58 22 -38 0
-61 5 -69 15 -11 13 -5 15 41 15 30 0 64 3 76 6 16 4 23 0 28 -16 5 -17 12
-20 35 -15 20 4 29 2 33 -9 4 -9 12 -16 19 -16 27 0 72 -63 72 -102 1 -20 4
-34 7 -32 4 2 12 -3 19 -11 7 -8 27 -15 45 -15 35 0 75 -37 75 -69 0 -25 34
-41 74 -34 31 5 36 3 41 -19 8 -31 59 -53 76 -32 17 21 53 17 77 -9 26 -28 60
-28 97 1 32 26 44 27 69 9 10 -8 30 -12 43 -9 20 4 23 9 19 28 -5 17 -2 24 8
24 9 0 14 -9 13 -22 -2 -27 -20 -48 -40 -48 -9 0 -17 -4 -19 -9 -1 -5 -25 -11
-53 -12 -27 -2 -53 -8 -56 -12 -3 -4 -17 -3 -32 2 -19 7 -28 6 -37 -4 -9 -11
4 -12 74 -9 47 3 98 11 113 19 15 8 36 15 45 15 20 0 34 19 30 43 -2 9 3 17
10 17 7 0 49 20 92 45 44 25 81 43 84 40 3 -2 -5 -32 -18 -66 -16 -44 -19 -64
-11 -72 8 -8 11 -5 11 10 0 24 53 73 78 72 54 -1 202 -38 218 -53 16 -17 16
-20 1 -45 -9 -15 -12 -32 -8 -39 10 -16 69 -12 97 5 12 7 29 11 38 7 12 -5 20
1 28 23 8 22 29 40 72 63 34 18 70 41 81 50 11 10 56 39 100 65 44 26 71 44
60 40 -49 -17 -46 -14 20 21 39 20 79 38 90 40 26 3 75 22 75 29 0 12 -40 4
-54 -11 -9 -8 -16 -11 -16 -5 0 20 -48 12 -55 -9 -7 -22 -20 -26 -30 -10 -10
17 -81 -26 -94 -57 -9 -22 -41 -43 -141 -96 -122 -64 -192 -85 -173 -53 4 7
71 46 148 86 77 39 145 77 150 84 6 7 44 31 85 54 57 32 69 42 49 42 -14 0
-30 -5 -35 -10 -14 -14 -44 -2 -44 16 0 16 -16 19 -25 4 -10 -16 -25 -12 -18
5 4 12 17 15 51 13 45 -3 46 -2 49 27 1 16 -3 35 -9 42 -8 10 -8 17 0 25 8 8
21 4 48 -17 29 -22 38 -25 45 -14 10 17 23 5 16 -15 -3 -8 -19 -17 -36 -21
-17 -4 -31 -13 -31 -21 0 -11 4 -12 19 -4 28 14 44 12 37 -5 -3 -8 -2 -15 3
-15 5 0 11 17 15 38 10 62 20 70 53 46 32 -24 41 -53 21 -65 -20 -13 -28 -11
-28 7 0 8 -5 12 -10 9 -6 -4 -8 -11 -5 -16 4 -5 -1 -9 -9 -9 -9 0 -16 -5 -16
-11 0 -6 9 -9 20 -6 11 3 20 1 20 -4 0 -5 7 -6 18 0 56 28 99 44 115 42 10 -1
17 4 17 13 0 18 -73 141 -104 174 -43 48 -146 82 -146 49 0 -7 -15 -27 -33
-45 -25 -24 -42 -32 -70 -32 -20 0 -37 5 -37 10 0 19 -67 10 -123 -15 -132
-61 -370 -100 -437 -72 -19 8 -53 17 -75 20 l-40 6 30 -14 c17 -8 42 -14 58
-15 15 0 27 -2 27 -4 0 -3 -16 -35 -35 -72 -36 -72 -38 -92 -5 -56 12 12 17
22 13 22 -4 0 3 11 17 25 14 13 30 30 36 38 7 8 42 17 85 20 82 8 148 18 199
32 3 1 19 5 35 10 17 4 49 16 73 26 23 10 42 14 42 9 0 -6 -4 -10 -10 -10 -5
0 -24 -21 -41 -47 -18 -27 -36 -49 -41 -51 -4 -2 -8 -10 -8 -18 0 -9 -5 -12
-12 -8 -6 4 -8 3 -4 -4 3 -6 -1 -18 -10 -26 -9 -9 -14 -23 -11 -30 3 -7 -5
-31 -19 -52 -30 -49 -32 -38 -2 12 12 21 17 34 10 30 -18 -11 -44 -66 -38 -81
3 -9 0 -12 -10 -8 -9 3 -14 -1 -14 -14 0 -10 -5 -24 -12 -31 -9 -9 -9 -12 -1
-12 7 0 15 9 18 21 4 11 9 18 11 16 8 -8 -18 -57 -27 -51 -5 3 -7 -1 -4 -8 7
-18 -30 -111 -45 -116 -7 -3 -11 1 -8 9 7 21 -42 68 -76 74 -17 3 -44 8 -61
11 -16 4 -59 9 -93 11 -57 4 -63 7 -59 24 3 12 0 19 -10 19 -8 0 -13 6 -10 13
3 6 8 19 12 28 5 12 -9 24 -59 50 -36 18 -68 30 -73 25 -4 -5 -3 -11 4 -13 9
-3 9 -11 1 -31 -22 -50 -32 -57 -39 -28 -9 31 -1 66 15 66 30 1 -28 19 -95 30
-54 9 -76 16 -76 27 0 9 7 12 19 9 10 -3 27 -9 38 -12 11 -4 20 -2 20 2 0 10
-79 52 -482 258 -147 75 -275 136 -285 136 -15 0 -16 2 -3 10 20 13 -1 13 -34
0 -21 -7 -26 -6 -26 5 0 8 8 15 18 15 10 1 3 8 -19 20 -19 10 -41 26 -48 34
-19 23 -61 21 -61 -2 0 -10 5 -23 11 -29 6 -6 8 -20 5 -31 -5 -15 -18 -21 -54
-24 -81 -7 -83 -5 -81 73 1 38 6 69 12 69 5 0 7 7 3 15 -3 8 0 15 7 16 36 2
73 11 82 20 5 5 29 9 55 9 25 0 52 5 60 11 12 9 11 10 -7 6 -13 -3 -23 -1 -23
4 0 5 9 9 19 9 11 0 27 3 37 7 11 4 15 3 10 -5 -3 -6 32 2 79 18 115 40 129
38 27 -5 -46 -19 -99 -43 -118 -54 -19 -11 -34 -15 -34 -9 0 7 -5 6 -15 -2 -8
-6 -18 -9 -23 -6 -13 8 -32 -17 -24 -31 4 -6 30 -21 59 -33 29 -12 55 -31 58
-41 4 -10 17 -22 31 -25 13 -3 24 -10 24 -15 0 -5 7 -6 15 -3 9 4 18 -2 23
-16 6 -15 63 -50 193 -117 274 -142 500 -261 537 -285 18 -11 36 -17 40 -13 4
4 1 10 -6 12 -7 3 -18 11 -26 18 -7 8 -171 96 -365 196 -193 100 -351 188
-351 195 0 19 -31 46 -46 40 -8 -3 -26 0 -40 6 -23 11 -25 16 -20 50 l6 38
-37 -4 c-34 -4 -30 0 36 31 90 42 243 83 248 66 3 -7 11 -9 19 -6 7 3 46 -5
85 -17 39 -11 76 -19 82 -17 7 2 19 1 28 -4 10 -5 23 -3 35 7 18 13 17 14 -10
8 -19 -5 -27 -3 -22 4 4 6 -1 8 -13 5 -11 -3 -30 2 -43 11 -14 10 -44 16 -82
16 -64 0 -71 10 -10 15 72 7 302 -58 273 -76 -8 -4 5 -12 32 -19 144 -38 292
-211 372 -435 49 -138 44 -208 -8 -106 -28 56 -57 71 -85 46 -17 -16 -19 -16
-28 2 -5 10 -15 36 -22 58 -17 55 -92 216 -98 211 -5 -6 -32 19 -32 29 0 3 5
3 12 -1 7 -5 8 -3 4 5 -5 7 -19 16 -32 21 -13 5 -24 15 -24 21 0 8 6 7 17 -2
28 -23 -20 41 -61 80 -19 19 -33 38 -30 43 6 9 -34 10 -58 0 -13 -6 -5 -16 40
-52 31 -25 80 -74 109 -110 56 -68 158 -260 151 -282 -2 -6 -28 35 -56 92 -67
136 -133 223 -233 305 -58 48 -98 72 -147 89 -37 12 -76 26 -87 30 -11 5 -6
-1 10 -13 17 -12 54 -30 84 -41 121 -46 260 -192 344 -364 25 -51 49 -104 52
-119 6 -20 11 -25 20 -17 17 14 26 1 14 -21 -6 -13 -6 -19 1 -19 5 0 10 4 10
9 0 5 9 7 19 4 13 -3 23 2 31 17 12 22 12 22 30 2 11 -11 23 -34 27 -51 5 -21
19 -37 43 -49 28 -14 34 -22 32 -42 -4 -24 -3 -24 15 -7 15 14 15 19 4 26 -9
6 -10 14 -3 27 12 24 -20 163 -47 208 -11 17 -24 51 -31 76 -15 57 -59 135
-116 205 l-45 55 78 0 c44 0 83 4 89 10 6 6 31 6 72 -2 l63 -12 24 30 c13 16
31 44 40 62 9 18 20 30 24 27 5 -2 14 2 20 9 9 10 9 16 1 21 -15 9 -50 -23
-50 -46 0 -9 -14 -29 -31 -43 -37 -31 -49 -27 -114 43 -57 60 -153 119 -214
131 -25 5 -62 15 -81 23 -28 12 -31 16 -15 20 11 2 6 3 -11 2 -18 -2 -65 1
-105 6 -40 5 -74 7 -76 5 -2 -2 33 -12 79 -23 l83 -19 -105 1 c-85 0 -112 4
-145 21 -291 150 -344 173 -420 180 -49 5 -49 4 -20 -9 17 -8 63 -24 104 -37
40 -13 75 -30 78 -37 3 -7 9 -10 14 -7 5 2 21 -2 36 -10 16 -8 22 -15 15 -16
-7 0 -10 -4 -7 -10 6 -10 -9 -15 -30 -10 -5 1 -6 -2 -2 -6 11 -12 37 -14 37
-3 0 5 10 14 23 18 24 10 57 -11 57 -36 0 -7 6 -13 13 -13 8 0 14 -6 14 -14 0
-16 -70 -13 -75 3 -4 12 -80 36 -101 32 -15 -3 -141 57 -141 67 0 3 8 14 17
25 15 15 15 19 3 17 -8 -1 -20 -2 -26 -1 -18 2 -84 62 -84 77 0 17 32 26 83
22 32 -2 42 1 42 12 0 20 -70 36 -101 21 -31 -14 -30 -2 3 29 15 14 23 18 18
10 -7 -13 -6 -13 7 -2 21 17 50 17 198 2 70 -7 135 -19 147 -27 12 -8 31 -12
43 -8 13 4 20 2 20 -7 0 -10 2 -10 8 0 9 13 70 13 78 0 3 -4 12 -4 21 -1 9 4
21 -1 29 -12 8 -10 14 -13 14 -7 0 17 23 15 46 -4 18 -15 18 -15 -8 -11 -15 2
-29 -1 -31 -7 -3 -8 -11 -7 -26 2 -13 7 -21 8 -21 2 0 -18 51 -31 91 -23 l39
8 -23 28 c-19 25 -34 30 -122 43 -55 8 -115 13 -132 10 -18 -2 -33 -1 -33 5 0
5 6 9 13 10 6 0 1 4 -13 8 -32 10 -308 21 -335 14z m830 -570 c18 -12 18 -13
2 -13 -23 0 -57 18 -57 30 0 11 26 3 55 -17z m155 7 c0 -5 -4 -10 -9 -10 -5 0
-23 -3 -40 -6 -19 -4 -31 -2 -31 4 0 10 23 18 63 21 9 0 17 -3 17 -9z m-336
-60 c16 -17 27 -33 24 -35 -4 -4 -98 83 -98 91 0 9 46 -26 74 -56z m-734 -30
c0 -5 -4 -10 -10 -10 -5 0 -10 5 -10 10 0 6 5 10 10 10 6 0 10 -4 10 -10z m14
-24 c-6 -16 -24 -23 -24 -8 0 10 22 33 27 28 2 -2 1 -11 -3 -20z m-30 -59 c10
-35 30 -88 45 -119 l28 -55 -39 12 c-22 6 -61 8 -88 5 l-48 -6 -26 76 c-14 41
-26 81 -26 87 0 7 21 13 53 15 43 2 54 7 62 26 5 12 13 22 16 22 3 0 14 -28
23 -63z m454 -183 c227 -116 317 -167 326 -185 8 -16 19 -23 35 -22 37 5 61
-14 63 -50 l1 -32 4 33 c3 19 10 32 19 32 8 0 14 -5 14 -11 0 -16 -21 -52 -39
-67 -32 -27 -123 -62 -159 -62 -78 0 -104 -20 -56 -42 17 -8 39 -9 72 -2 26 5
65 7 87 4 40 -6 39 -6 -20 -14 -39 -5 -67 -15 -78 -28 -24 -25 -61 -20 -65 9
-3 17 -12 24 -40 28 -101 17 -225 82 -319 167 -68 63 -152 168 -147 183 7 18
-13 55 -30 55 -7 0 -27 30 -44 68 -49 106 -54 123 -42 137 9 10 20 8 58 -13
25 -15 188 -99 360 -188z m-56 69 c326 -168 407 -213 392 -213 -5 0 -167 81
-360 180 -192 99 -341 180 -332 180 10 0 145 -66 300 -147z m1624 18 c42 -19
78 -53 38 -36 -10 4 -40 16 -66 25 -26 9 -45 20 -41 23 10 11 25 8 69 -12z m8
-46 c70 -47 109 -106 86 -129 -9 -8 -16 -6 -28 9 -9 11 -29 26 -43 33 -22 12
-31 12 -55 -1 -16 -8 -35 -12 -43 -9 -15 5 -71 62 -71 72 1 12 67 48 91 49 14
1 43 -10 63 -24z m-285 -27 c-2 -2 -17 -14 -34 -28 l-30 -25 29 32 c16 18 32
31 34 28 3 -3 3 -6 1 -7z m81 -39 c22 -28 40 -54 40 -57 0 -13 -61 -41 -76
-35 -10 3 -17 -1 -20 -13 -3 -12 -41 -38 -100 -67 -52 -27 -92 -53 -88 -58 3
-5 -2 -12 -10 -15 -9 -3 -16 -10 -16 -16 0 -5 52 18 116 51 64 34 125 61 135
61 48 0 7 -32 -123 -99 -79 -40 -153 -85 -165 -99 -13 -15 -23 -21 -23 -14 0
17 82 171 123 232 27 39 155 180 163 180 2 0 22 -23 44 -51z m47 21 c17 -26
-3 -38 -22 -14 -18 24 -19 34 -2 34 7 0 18 -9 24 -20z m-1601 -251 c19 -22 19
-22 -3 -10 -13 6 -23 16 -23 21 0 15 5 12 26 -11z m669 -3 c0 -13 -4 -22 -9
-18 -5 3 -7 -1 -4 -9 3 -9 -8 -21 -31 -33 l-36 -18 27 25 c15 14 30 37 34 51
8 33 19 34 19 2z m80 -8 c-5 -21 -5 -21 9 2 9 15 15 19 15 10 1 -22 -11 -36
-36 -44 -20 -7 -21 -5 -10 24 13 35 31 41 22 8z m75 -39 c0 -5 -4 -7 -10 -4
-5 3 -10 2 -10 -4 0 -5 -30 -25 -68 -43 -70 -35 -69 -35 -222 -29 l-35 2 35
19 c40 22 68 27 30 5 -22 -13 -23 -14 -5 -15 11 0 40 14 65 30 43 29 77 40 66
21 -3 -5 3 -11 14 -14 11 -3 20 -1 20 5 0 6 6 8 13 6 6 -3 26 3 42 13 34 20
65 24 65 8z m-676 -55 c17 -6 22 -24 8 -24 -5 0 -17 7 -28 15 -19 15 -8 20 20
9z m136 -66 c0 -12 -38 -10 -45 2 -4 6 5 9 19 8 15 -1 26 -6 26 -10z m295 -8
c3 -5 -1 -10 -10 -10 -9 0 -13 5 -10 10 3 6 8 10 10 10 2 0 7 -4 10 -10z m695
-14 c0 -20 -22 -56 -31 -50 -6 3 -24 -3 -40 -15 -33 -24 -39 -26 -38 -8 0 17
109 89 109 73z m-70 -20 c0 -3 -4 -8 -10 -11 -5 -3 -10 -1 -10 4 0 6 5 11 10
11 6 0 10 -2 10 -4z"/>
<path d="M296 1156 c10 -8 21 -12 24 -10 5 6 -21 24 -34 24 -6 0 -1 -6 10 -14z"/>
<path d="M270 1113 c0 -7 -7 -10 -17 -6 -10 4 -14 2 -10 -4 8 -12 47 -24 47
-15 0 13 -20 37 -20 25z"/>
<path d="M335 1110 c-3 -5 -2 -10 4 -10 5 0 13 5 16 10 3 6 2 10 -4 10 -5 0
-13 -4 -16 -10z"/>
<path d="M355 1089 c-4 -6 -5 -12 -2 -15 2 -3 7 2 10 11 7 17 1 20 -8 4z"/>
<path d="M888 1933 c7 -3 16 -2 19 1 4 3 -2 6 -13 5 -11 0 -14 -3 -6 -6z"/>
<path d="M2240 1925 c-14 -8 -44 -14 -68 -15 -26 0 -41 -4 -37 -10 3 -6 16 -8
28 -5 18 4 58 10 98 14 9 1 20 31 11 31 -4 -1 -18 -7 -32 -15z"/>
<path d="M500 1917 c3 -3 25 -8 50 -11 25 -4 59 -9 75 -11 28 -5 28 -4 7 5
-26 11 -140 26 -132 17z"/>
<path d="M1572 1879 c-5 -19 -6 -38 -3 -44 3 -5 9 8 12 30 9 50 3 58 -9 14z"/>
<path d="M1091 1862 c13 -22 25 -39 27 -37 5 5 -27 63 -39 71 -6 3 0 -12 12
-34z"/>
<path d="M2141 1849 c25 -24 55 -49 65 -55 17 -10 17 -15 -18 -96 l-36 -86 29
-21 c16 -12 30 -17 30 -11 1 5 2 13 3 18 1 4 11 23 24 43 12 20 25 57 28 81 6
41 4 47 -20 64 -15 11 -48 35 -74 55 -72 54 -81 57 -31 8z m103 -126 c-8 -49
-35 -106 -53 -111 -17 -6 -10 29 21 101 25 56 41 62 32 10z"/>
<path d="M588 1873 c7 -3 16 -2 19 1 4 3 -2 6 -13 5 -11 0 -14 -3 -6 -6z"/>
<path d="M880 1875 c0 -2 18 -13 40 -24 22 -10 40 -15 40 -10 0 6 -16 17 -35
25 -37 15 -45 17 -45 9z"/>
<path d="M731 1863 c-1 -6 10 -20 24 -31 14 -11 25 -24 25 -28 0 -14 -50 -33
-68 -27 -9 3 -14 3 -11 0 10 -11 150 -58 162 -54 6 2 -10 9 -36 16 -50 14 -54
20 -35 51 10 15 9 23 -6 39 -11 12 -25 21 -32 21 -7 0 -15 6 -17 13 -4 8 -6 8
-6 0z"/>
<path d="M615 1849 c-10 -16 4 -26 57 -40 35 -10 51 -10 59 -2 8 8 5 15 -12
26 -33 20 -96 30 -104 16z"/>
<path d="M1530 1823 c-25 -8 -40 -35 -40 -69 0 -30 21 -64 39 -64 41 0 67 93
34 121 -10 9 -25 14 -33 12z m34 -29 c4 -9 4 -19 1 -22 -3 -3 -5 0 -5 7 0 7
-4 9 -10 6 -5 -3 -10 1 -10 9 0 21 16 20 24 0z m-21 -49 c8 -18 -11 -31 -25
-17 -11 11 -3 32 12 32 4 0 10 -7 13 -15z"/>
<path d="M2126 1805 c-18 -18 -21 -35 -6 -35 6 0 10 6 10 14 0 8 6 16 13 19 6
2 9 7 6 11 -4 4 -14 0 -23 -9z"/>
<path d="M1786 1753 c-3 -21 -9 -49 -12 -63 -4 -21 -4 -22 6 -8 13 22 30 108
20 108 -4 0 -10 -17 -14 -37z"/>
<path d="M1260 1746 c0 -8 4 -17 9 -20 5 -4 7 3 4 14 -6 23 -13 26 -13 6z"/>
<path d="M2337 1753 c-4 -3 -7 -13 -7 -22 1 -13 3 -13 11 2 11 19 8 33 -4 20z"/>
<path d="M512 1723 c-16 -14 -16 -14 0 -9 10 3 20 1 23 -4 4 -6 17 -7 31 -4
16 4 26 1 29 -8 3 -8 11 -15 18 -16 7 0 23 -4 36 -8 17 -5 23 -4 19 6 -2 7
-14 15 -26 17 -13 1 -34 11 -49 20 -33 22 -59 23 -81 6z"/>
<path d="M2074 1722 c-20 -13 -35 -50 -24 -57 6 -4 10 -3 9 2 -4 21 2 33 16
33 8 0 15 7 15 15 0 17 -1 17 -16 7z"/>
<path d="M918 1703 c6 -2 18 -2 25 0 6 3 1 5 -13 5 -14 0 -19 -2 -12 -5z"/>
<path d="M560 1690 c0 -5 7 -10 16 -10 8 0 12 5 9 10 -3 6 -10 10 -16 10 -5 0
-9 -4 -9 -10z"/>
<path d="M1000 1690 c8 -5 24 -10 34 -10 26 0 18 6 -19 14 -22 5 -26 4 -15 -4z"/>
<path d="M1138 1673 c6 -2 18 -2 25 0 6 3 1 5 -13 5 -14 0 -19 -2 -12 -5z"/>
<path d="M2061 1648 c-33 -12 -25 -16 29 -15 33 1 50 6 50 15 0 13 -44 14 -79
0z"/>
<path d="M2400 1615 c0 -25 4 -44 8 -41 5 3 7 -5 6 -17 -1 -12 -3 -26 -3 -32
-1 -5 -13 3 -26 18 -30 34 -34 21 -5 -16 11 -14 20 -30 20 -36 0 -18 -58 -93
-95 -123 -18 -15 -59 -72 -90 -125 -32 -54 -69 -110 -83 -125 -26 -28 -19 -38
10 -15 9 6 45 57 81 112 61 94 134 181 144 171 3 -3 -10 -35 -27 -73 -53 -112
-63 -140 -50 -148 4 -3 16 16 25 42 10 27 30 76 46 109 33 71 35 84 12 84 -13
0 -11 6 11 28 36 38 49 91 41 163 -8 72 -25 88 -25 24z"/>
<path d="M1890 1646 c0 -2 9 -6 20 -9 11 -3 20 -1 20 4 0 5 -9 9 -20 9 -11 0
-20 -2 -20 -4z"/>
<path d="M1218 1633 c7 -3 16 -2 19 1 4 3 -2 6 -13 5 -11 0 -14 -3 -6 -6z"/>
<path d="M1536 1615 c4 -8 10 -12 15 -9 11 6 2 24 -11 24 -5 0 -7 -7 -4 -15z"/>
<path d="M1320 1610 c0 -6 7 -10 15 -10 8 0 15 2 15 4 0 2 -7 6 -15 10 -8 3
-15 1 -15 -4z"/>
<path d="M1380 1604 c0 -1 16 -11 35 -23 33 -19 35 -19 35 -2 0 14 -9 20 -35
23 -19 2 -35 3 -35 2z"/>
<path d="M2261 1583 c-1 -12 4 -25 9 -28 12 -7 12 2 0 30 -8 19 -9 19 -9 -2z"/>
<path d="M2236 1561 c-4 -7 -5 -15 -2 -18 9 -9 19 4 14 18 -4 11 -6 11 -12 0z"/>
<path d="M1570 1543 c0 -12 28 -38 34 -32 2 2 -5 13 -15 23 -11 11 -19 15 -19
9z"/>
<path d="M2280 1505 c-15 -24 -19 -40 -13 -46 7 -7 14 0 23 20 7 17 19 31 27
31 8 0 12 -4 8 -9 -3 -5 2 -16 10 -24 13 -14 12 -19 -15 -45 -17 -17 -30 -36
-30 -42 0 -6 18 6 39 27 l39 38 -23 40 c-12 21 -27 41 -33 43 -5 1 -20 -13
-32 -33z"/>
<path d="M2230 1510 c6 -11 13 -20 16 -20 2 0 0 9 -6 20 -6 11 -13 20 -16 20
-2 0 0 -9 6 -20z"/>
<path d="M1938 1501 c8 -4 12 -16 10 -26 -2 -10 4 -19 13 -20 9 -2 16 4 16 11
0 8 -4 14 -9 14 -4 0 -8 7 -8 15 0 8 -8 15 -17 15 -14 0 -15 -2 -5 -9z"/>
<path d="M2210 1485 c0 -2 15 -25 33 -51 21 -30 33 -41 35 -30 4 17 -44 86
-59 86 -5 0 -9 -2 -9 -5z"/>
<path d="M1990 1472 c0 -5 14 -12 31 -16 19 -3 28 -10 23 -17 -4 -7 -9 -8 -13
-1 -9 16 -115 -68 -140 -110 -23 -41 -27 -83 -9 -94 6 -4 17 1 25 11 7 11 13
16 13 13 0 -3 28 9 63 26 51 26 66 40 84 76 l22 45 -22 17 c-12 10 -17 18 -11
18 5 0 15 -5 22 -12 6 -6 14 -9 17 -6 7 6 -51 42 -84 53 -11 3 -21 2 -21 -3z
m67 -64 c12 -9 5 -35 -24 -83 -9 -16 -14 -17 -26 -7 -12 10 -17 10 -23 1 -5
-8 -3 -9 6 -4 9 5 11 4 6 -4 -6 -9 -11 -9 -24 1 -9 7 -13 8 -9 2 4 -6 -2 -19
-13 -29 -11 -10 -20 -14 -20 -9 -1 5 -9 -1 -19 -13 -17 -20 -19 -21 -23 -5
-10 40 28 94 102 145 34 23 42 24 67 5z"/>
<path d="M1993 1371 c0 -11 5 -18 9 -15 4 3 5 11 1 19 -7 21 -12 19 -10 -4z"/>
<path d="M2023 1375 c0 -8 4 -12 9 -9 5 3 6 10 3 15 -9 13 -12 11 -12 -6z"/>
<path d="M2019 1333 c-13 -16 -12 -17 4 -4 9 7 17 15 17 17 0 8 -8 3 -21 -13z"/>
<path d="M1933 1299 c-2 -23 3 -25 10 -4 4 8 3 16 -1 19 -4 3 -9 -4 -9 -15z"/>
<path d="M945 1440 c-3 -5 3 -10 14 -10 11 0 23 -4 26 -10 4 -6 -1 -7 -12 -3
-13 4 -15 3 -8 -5 11 -12 55 -5 55 8 0 7 -45 30 -60 30 -5 0 -12 -4 -15 -10z"/>
<path d="M1773 1395 c-29 -30 -60 -55 -68 -55 -8 0 -15 -5 -15 -11 0 -16 83
-7 88 11 4 12 3 13 -10 3 -8 -7 -18 -10 -22 -6 -4 4 19 31 51 60 32 28 52 52
44 53 -8 0 -39 -25 -68 -55z"/>
<path d="M214 1399 c-5 -9 -2 -11 9 -6 10 4 28 2 42 -3 16 -6 25 -6 25 0 0 6
-6 10 -12 10 -7 0 -23 3 -34 6 -13 3 -25 0 -30 -7z"/>
<path d="M1852 1381 c3 -22 -1 -36 -14 -48 -17 -15 -18 -14 -18 15 0 18 -4 32
-10 32 -5 0 -10 -12 -10 -28 0 -30 -51 -80 -168 -166 -34 -25 -62 -48 -62 -52
0 -7 9 -1 91 52 37 24 72 51 79 59 16 19 30 19 30 1 0 -8 -14 -24 -30 -36 -29
-21 -30 -23 -13 -37 17 -14 17 -14 1 -9 -10 3 -18 1 -18 -5 0 -16 35 -6 36 11
2 32 5 33 27 13 12 -11 29 -23 37 -27 8 -4 3 4 -12 18 -28 25 -36 46 -19 46 5
0 19 -14 31 -31 12 -16 24 -28 27 -25 8 8 -8 46 -19 43 -6 -1 -18 12 -28 28
-15 27 -15 32 -2 53 8 13 21 21 28 18 29 -11 68 84 41 101 -6 3 -8 -7 -5 -26z"/>
<path d="M1173 1325 c0 -8 3 -13 5 -10 3 3 17 -5 31 -17 21 -19 20 -17 -3 10
-35 37 -33 36 -33 17z"/>
<path d="M1529 1301 c-17 -22 -31 -42 -31 -45 1 -3 -12 -19 -27 -35 -31 -33
-44 -77 -30 -101 4 -8 9 -10 9 -5 7 57 21 87 71 148 44 52 58 77 44 77 -2 0
-18 -18 -36 -39z"/>
<path d="M2117 1333 c-4 -3 -7 -17 -7 -30 0 -13 -4 -22 -9 -19 -8 5 -23 -54
-15 -63 7 -8 51 98 44 108 -3 6 -9 8 -13 4z"/>
<path d="M1687 1293 c-3 -3 -3 -11 0 -19 3 -8 0 -14 -5 -14 -6 0 -13 8 -15 18
-3 12 -5 10 -6 -7 0 -14 -9 -34 -18 -45 -17 -19 -17 -19 12 1 17 11 38 30 48
41 15 16 15 20 3 25 -8 3 -16 3 -19 0z"/>
<path d="M2161 1264 c-13 -19 -21 -37 -19 -40 3 -3 16 11 28 31 29 47 22 54
-9 9z"/>
<path d="M1622 1265 c-11 -13 -22 -22 -25 -18 -13 12 -57 -28 -57 -52 0 -13
-7 -31 -16 -40 -9 -9 -14 -19 -11 -22 14 -13 39 10 87 81 49 74 61 101 22 51z
m-38 -53 c-9 -16 -25 -39 -35 -53 -20 -24 -20 -24 -2 16 15 34 39 63 51 65 2
0 -4 -13 -14 -28z"/>
<path d="M1812 1260 c0 -14 2 -19 5 -12 2 6 2 18 0 25 -3 6 -5 1 -5 -13z"/>
<path d="M2120 1245 c-7 -9 -8 -15 -2 -15 5 0 12 7 16 15 3 8 4 15 2 15 -2 0
-9 -7 -16 -15z"/>
<path d="M1512 1213 c-7 -2 -17 -14 -23 -25 -11 -20 -11 -20 15 -2 20 15 36
37 24 33 -2 0 -9 -3 -16 -6z"/>
<path d="M2110 1205 c-7 -9 -10 -18 -7 -21 3 -3 10 4 17 15 13 25 8 27 -10 6z"/>
<path d="M2060 1181 c0 -8 -7 -11 -17 -6 -15 5 -16 4 -5 -6 9 -10 15 -10 24
-1 6 6 9 15 5 19 -4 3 -7 1 -7 -6z"/>
<path d="M1260 1175 c1 -17 29 -49 37 -41 4 3 -3 16 -15 29 -12 12 -22 17 -22
12z"/>
<path d="M1640 1150 c-14 -11 -30 -20 -37 -20 -33 0 -63 -24 -62 -49 l1 -26 7
25 c4 14 11 25 16 26 52 3 115 33 115 56 0 13 -13 9 -40 -12z"/>
<path d="M2061 1130 c-13 -11 -19 -20 -14 -20 6 0 18 9 28 20 23 25 17 25 -14
0z"/>
<path d="M1483 1101 c0 -20 2 -27 4 -16 3 11 9 22 13 25 4 3 2 10 -5 16 -9 9
-12 4 -12 -25z"/>
<path d="M1890 1136 c0 -2 13 -6 29 -8 17 -2 28 -1 25 4 -5 8 -54 12 -54 4z"/>
<path d="M1710 1119 c0 -5 5 -7 10 -4 6 3 10 8 10 11 0 2 -4 4 -10 4 -5 0 -10
-5 -10 -11z"/>
<path d="M1515 1106 c-9 -10 -11 -23 -5 -43 1 -5 6 5 11 21 10 34 8 39 -6 22z"/>
<path d="M1823 1089 c-39 -25 -46 -54 -10 -44 34 11 80 39 85 53 6 19 -39 14
-75 -9z"/>
<path d="M1925 1100 c-3 -5 -1 -10 4 -10 6 0 11 5 11 10 0 6 -2 10 -4 10 -3 0
-8 -4 -11 -10z"/>
<path d="M1710 1089 c0 -5 -4 -8 -9 -4 -12 7 -94 -6 -86 -13 6 -6 64 -4 100 3
11 2 26 4 33 4 23 2 12 21 -13 21 -14 0 -25 -5 -25 -11z"/>
<path d="M1460 1052 c0 -27 173 -52 211 -31 22 13 15 15 -76 20 -55 3 -108 10
-117 14 -11 4 -18 3 -18 -3z"/>
<path d="M1734 924 c-25 -24 -25 -26 -8 -45 22 -24 26 -24 56 4 24 23 25 24 7
45 -22 28 -24 27 -55 -4z m31 -24 c-10 -11 -22 -17 -27 -14 -5 3 -1 12 9 20
27 20 39 17 18 -6z"/>
<path d="M433 883 c9 -2 23 -2 30 0 6 3 -1 5 -18 5 -16 0 -22 -2 -12 -5z"/>
<path d="M405 815 c39 -35 74 -64 80 -65 5 0 -22 29 -60 65 -39 35 -74 64 -80
64 -5 1 22 -28 60 -64z"/>
<path d="M1377 866 c-5 -12 -3 -22 5 -28 18 -11 28 -10 28 2 0 6 -4 10 -9 10
-5 0 -11 8 -13 18 -3 15 -4 15 -11 -2z"/>
<path d="M2473 848 c-24 -16 -43 -34 -43 -39 0 -5 -7 -9 -15 -9 -8 0 -15 4
-15 9 0 6 -51 -19 -112 -53 -62 -35 -138 -76 -168 -91 -58 -29 -72 -43 -66
-61 6 -15 -109 -154 -159 -194 -22 -17 -42 -36 -46 -41 -4 -8 -43 37 -70 81
-12 20 -43 1 -47 -30 -3 -18 0 -21 13 -16 11 4 15 2 12 -6 -6 -17 -90 -14
-186 6 -79 17 -126 49 -134 90 -3 20 -4 20 -12 2 -6 -13 -4 -22 7 -30 28 -20
108 -126 108 -141 0 -9 4 -14 9 -10 5 3 67 -6 138 -19 70 -14 154 -28 185 -31
56 -6 78 -17 59 -30 -6 -3 -7 -13 -4 -21 5 -13 1 -15 -23 -11 -16 3 -54 9 -84
12 -30 4 -93 16 -139 26 -46 11 -86 18 -88 15 -2 -2 49 -16 114 -31 65 -15
127 -31 138 -36 46 -19 215 -54 200 -41 -6 5 -44 15 -85 22 -61 11 -70 15 -45
20 19 3 30 11 30 22 0 9 4 20 8 24 23 23 -2 76 -43 89 -23 7 -23 7 5 -17 19
-17 24 -27 17 -32 -13 -8 -84 63 -79 79 2 6 13 11 24 13 26 4 104 78 137 130
13 20 31 43 40 51 9 7 16 22 16 32 0 15 5 17 33 12 17 -3 33 -7 35 -8 7 -6
-90 -125 -131 -161 -26 -23 -44 -44 -40 -48 23 -23 81 19 69 51 -4 9 -4 14 0
11 10 -11 45 12 38 24 -4 6 -3 8 4 4 6 -4 24 17 44 49 23 39 38 54 50 51 10
-2 16 1 15 6 -1 6 4 13 12 16 8 2 11 0 7 -6 -3 -6 4 -21 16 -34 13 -13 17 -16
10 -7 -8 10 -15 26 -16 36 -2 13 -19 21 -66 32 l-64 14 36 18 c20 10 40 23 43
29 11 18 23 11 18 -10 -3 -11 -1 -20 5 -20 5 0 13 11 16 24 8 32 142 99 167
83 13 -8 21 -7 33 4 8 8 27 23 42 34 14 11 32 26 40 33 8 7 14 9 14 5 0 -13
-31 -116 -38 -128 -4 -5 -8 -19 -9 -30 -2 -10 -9 -28 -17 -40 -8 -13 -10 -30
-5 -47 4 -16 4 -28 1 -28 -4 1 -26 5 -49 9 -24 5 -43 4 -43 0 0 -5 12 -9 28
-9 15 0 33 -4 40 -8 17 -11 7 -105 -14 -138 -9 -13 -14 -27 -11 -30 11 -11 47
60 47 91 0 20 7 35 21 43 17 11 20 20 16 45 -5 30 49 232 74 280 7 13 6 23 -2
33 -15 18 -16 18 -66 -18z m-81 -80 c-11 -11 -32 -3 -32 12 0 12 34 18 39 7 2
-5 -1 -13 -7 -19z m-552 -432 c35 -37 48 -56 35 -53 -11 4 -51 11 -90 17 -104
15 -227 47 -236 62 -13 20 5 21 92 3 74 -15 83 -15 105 0 13 8 24 20 24 26 0
17 11 8 70 -55z"/>
<path d="M320 851 c0 -5 7 -12 16 -15 14 -5 15 -4 4 9 -14 17 -20 19 -20 6z"/>
<path d="M526 828 c10 -14 21 -24 23 -22 3 3 -6 15 -18 27 l-24 22 19 -27z"/>
<path d="M1624 803 c15 -4 9 -10 -29 -27 -34 -16 -44 -24 -32 -29 8 -3 21 1
27 8 7 8 17 12 23 8 5 -3 7 -2 4 4 -4 6 14 17 41 26 l47 16 -50 -1 c-27 0 -41
-3 -31 -5z"/>
<path d="M508 768 c12 -13 22 -33 22 -45 0 -11 9 -28 20 -38 24 -21 25 -10 5
37 -8 19 -27 43 -42 53 l-28 18 23 -25z"/>
<path d="M1685 750 c3 -5 8 -10 11 -10 2 0 4 5 4 10 0 6 -5 10 -11 10 -5 0 -7
-4 -4 -10z"/>
<path d="M1610 742 c0 -8 -5 -10 -12 -6 -10 5 -10 4 -1 -6 16 -17 35 -9 23 10
-7 11 -10 11 -10 2z"/>
<path d="M1670 720 c-9 -6 -10 -10 -3 -10 6 0 15 5 18 10 8 12 4 12 -15 0z"/>
<path d="M1707 724 c-13 -14 5 -24 24 -13 20 10 20 10 2 -17 l-18 -27 27 17
c31 20 27 46 -6 46 -13 0 -26 -3 -29 -6z"/>
<path d="M1594 705 c22 -17 84 -31 93 -21 4 3 -4 6 -16 6 -12 0 -38 7 -59 15
-32 13 -35 13 -18 0z"/>
<path d="M1780 709 c0 -5 5 -7 10 -4 6 3 10 8 10 11 0 2 -4 4 -10 4 -5 0 -10
-5 -10 -11z"/>
<path d="M495 680 c3 -5 8 -10 11 -10 2 0 4 5 4 10 0 6 -5 10 -11 10 -5 0 -7
-4 -4 -10z"/>
<path d="M1625 660 c3 -5 8 -10 11 -10 2 0 4 5 4 10 0 6 -5 10 -11 10 -5 0 -7
-4 -4 -10z"/>
<path d="M680 656 c0 -2 8 -10 18 -17 15 -13 16 -12 3 4 -13 16 -21 21 -21 13z"/>
<path d="M637 629 c7 -7 15 -10 18 -7 3 3 -2 9 -12 12 -14 6 -15 5 -6 -5z"/>
<path d="M705 601 c47 -23 55 -24 55 -11 0 9 -14 14 -75 26 -11 2 -2 -5 20
-15z"/>
<path d="M2235 581 c-3 -5 2 -11 10 -15 8 -3 17 -1 20 3 3 5 -2 11 -10 15 -8
3 -17 1 -20 -3z"/>
<path d="M2295 570 c27 -12 43 -12 25 0 -8 5 -22 9 -30 9 -10 0 -8 -3 5 -9z"/>
<path d="M905 530 c-13 -5 -14 -9 -5 -9 8 0 24 4 35 9 13 5 14 9 5 9 -8 0 -24
-4 -35 -9z"/>
<path d="M2375 498 c-35 -62 -99 -137 -144 -171 -43 -33 -83 -49 -155 -61 -51
-9 -43 -19 11 -13 88 10 177 65 246 152 29 36 38 43 32 25 -4 -14 -13 -35 -21
-47 -18 -28 -18 -39 -1 -24 8 6 18 7 22 3 5 -4 5 -2 2 4 -4 7 0 31 8 54 8 24
13 45 10 48 -2 2 2 14 10 26 17 23 19 36 7 36 -4 0 -16 -15 -27 -32z"/>
<path d="M938 513 c7 -3 16 -2 19 1 4 3 -2 6 -13 5 -11 0 -14 -3 -6 -6z"/>
<path d="M1455 511 c6 -5 24 -13 40 -17 39 -9 30 0 -15 15 -19 6 -30 7 -25 2z"/>
<path d="M1660 499 c0 -5 9 -9 20 -9 11 0 20 2 20 4 0 2 -9 6 -20 9 -11 3 -20
1 -20 -4z"/>
<path d="M1560 480 c63 -15 156 -23 145 -12 -5 5 -48 12 -95 15 -55 3 -73 2
-50 -3z"/>
<path d="M2008 353 c7 -3 16 -2 19 1 4 3 -2 6 -13 5 -11 0 -14 -3 -6 -6z"/>
<path d="M2135 350 c-16 -7 -17 -9 -3 -9 9 -1 20 4 23 9 7 11 7 11 -20 0z"/>
<path d="M2279 326 c-13 -22 -30 -36 -48 -39 -18 -4 -32 -15 -36 -27 -5 -15
-12 -19 -30 -14 -14 4 -36 -1 -56 -13 -24 -13 -33 -15 -36 -5 -3 6 -9 12 -14
12 -10 0 10 -41 26 -52 6 -4 2 -14 -10 -23 -19 -15 -17 -16 25 -11 73 9 80 11
88 21 4 6 18 12 32 12 14 1 35 14 47 28 12 14 26 25 31 25 10 0 45 37 57 60 4
8 -8 0 -28 -19 -19 -18 -40 -30 -46 -26 -6 3 -14 -2 -18 -12 -3 -10 -15 -25
-27 -35 -18 -15 -21 -15 -32 -1 -9 14 -12 12 -18 -11 -4 -15 -12 -26 -19 -23
-7 2 -24 0 -39 -4 -23 -6 -28 -4 -28 11 0 10 9 28 19 41 16 20 23 22 38 13 24
-15 42 -7 54 23 7 18 14 23 28 18 15 -4 26 5 50 40 17 25 26 45 20 45 -5 0
-19 -15 -30 -34z"/>
<path d="M1954 339 c-5 -9 -2 -11 9 -6 10 4 28 2 40 -2 14 -6 30 -6 38 0 10 6
8 9 -11 9 -14 0 -35 3 -46 6 -13 3 -25 0 -30 -7z"/>
<path d="M2071 334 c0 -11 3 -14 6 -6 3 7 2 16 -1 19 -3 4 -6 -2 -5 -13z"/>
<path d="M1951 313 c0 -5 13 -18 30 -31 26 -21 32 -22 59 -10 43 19 37 27 -17
26 -27 0 -49 4 -51 11 -4 12 -22 15 -21 4z"/>
<path d="M2004 242 c-6 -4 -13 -15 -17 -25 -4 -10 -11 -16 -16 -12 -10 6 -26
-13 -18 -21 9 -9 43 14 61 41 16 24 12 32 -10 17z"/>
</g>
</svg>
